<?xml version="1.0" standalone="no"?>
<!DOCTYPE svg PUBLIC "-//W3C//DTD SVG 20010904//EN"
 "http://www.w3.org/TR/2001/REC-SVG-20010904/DTD/svg10.dtd">
<svg version="1.0" xmlns="http://www.w3.org/2000/svg"
 width="260.000000pt" height="260.000000pt" viewBox="0 0 260.000000 260.000000"
 preserveAspectRatio="xMidYMid meet">
<metadata>
Created by potrace 1.11, written by Peter Selinger 2001-2013
</metadata>
<g transform="translate(0.000000,260.000000) scale(0.100000,-0.100000)"
fill="#000000" stroke="none">
<path d="M788 1493 l-3 -888 -28 -42 c-45 -65 -99 -87 -225 -87 l-102 -1 -5
-30 c-3 -16 -13 -83 -24 -148 l-18 -118 21 -11 c31 -17 231 -22 299 -8 174 36
331 177 390 350 22 65 22 68 25 959 2 722 0 896 -10 903 -7 4 -82 8 -165 8
l-153 0 -2 -887z"/>
<path d="M1410 1275 l0 -1105 455 0 455 0 0 165 0 165 -284 0 c-252 0 -285 2
-290 16 -3 9 -6 431 -6 938 l0 921 -165 3 -165 2 0 -1105z"/>
</g>
</svg>
